<svg width="487" height="444" viewBox="0 0 487 444" fill="none" xmlns="http://www.w3.org/2000/svg">
<path d="M455.348 419.758H434.699L437.409 427.038C432.97 428.483 422.874 431.796 418.341 433.099C414.12 434.313 412.964 439.215 416.328 441.495C417.734 442.449 419.62 442.92 421.446 442.913L452.258 442.803C456.542 442.787 459.369 441.654 459.942 438.026C460.073 437.195 460.002 436.341 459.774 435.531L455.348 419.758Z" fill="#072C4E"/>
<path d="M339.029 419.9H317.133L319.538 427.02C315.1 428.466 304.714 431.907 300.182 433.21C295.961 434.423 294.805 439.324 298.169 441.605C299.575 442.559 301.46 442.92 303.287 442.914H336.575C336.623 442.914 336.671 442.913 336.719 442.912C341.74 442.851 345.182 437.804 343.536 433.056L339.029 419.9Z" fill="#072C4E"/>
<path d="M409.072 217.256C409.072 217.256 423.789 259.202 437.045 302.272C442.984 321.567 463.472 394.682 469.735 412.641C470.86 415.863 468.469 419.598 465.06 419.598H424.496C420.202 419.598 415.634 416.24 414.341 412.141C385.806 321.7 369.305 235.474 369.305 235.474C369.305 235.374 336.162 292.019 329.388 303.595C328.617 304.915 328.381 306.474 328.729 307.963C331.727 320.772 346.487 383.434 355.374 413.473C356.247 416.425 354.114 419.509 351.038 419.533C351.016 419.533 350.994 419.534 350.973 419.533H312.604C309.564 419.533 306.368 417.144 305.494 414.229C295.114 379.65 287.727 345.805 281.456 314.643C278.719 301.043 281.358 293.924 292.24 277.982C304.648 259.805 334.707 211.297 338.077 207.924" stroke="#082C4E" stroke-width="1.17148" stroke-linecap="round" stroke-linejoin="round"/>
<path d="M115.842 420.105H95.1941L94.8193 425.963C90.3808 427.408 78.6992 431.196 74.1663 432.499C69.9462 433.712 68.7896 438.614 72.1537 440.895C73.5597 441.848 75.5798 442.209 77.4064 442.203H106.846C111.677 442.185 114.655 440.745 114.637 435.909L115.842 420.105Z" fill="#072C4E"/>
<path d="M221.841 419.544H243.737L249.54 425.962C253.978 427.408 265.66 431.196 270.192 432.499C274.413 433.712 275.569 438.614 272.205 440.895C270.799 441.848 268.914 442.208 267.086 442.202H233.799C228.968 442.184 226.405 440.146 225.477 436.274L221.841 419.544Z" fill="#072C4E"/>
<path d="M204.729 248.913C226.97 290.493 260.057 369.685 269.284 411.851C270.057 415.386 267.399 419.492 263.785 419.546H213.246C210.385 419.589 207.279 416.043 206.855 413.209C199.779 365.987 151.817 251.218 144.853 227.827C144.853 227.827 137.03 374.037 136.509 409.633C136.434 414.788 132.995 420.166 127.844 420.166H85.7556C80.0411 420.166 75.6424 415.12 76.4195 409.453C86.2712 337.616 93.1059 258.249 102.39 214.67" stroke="#082C4E" stroke-width="1.17148" stroke-linecap="round" stroke-linejoin="round"/>
<path d="M176.42 211.634C180.014 218.044 185.266 225.076 188.552 229.177" stroke="#082C4E" stroke-width="1.17148" stroke-linecap="round" stroke-linejoin="round"/>
<path d="M64.1934 441.182C182.621 443.713 282.018 442.627 282.018 442.627" stroke="#082C4E" stroke-width="1.17148" stroke-linecap="round" stroke-linejoin="round"/>
<path d="M301.902 441.829C318.625 442.186 332.395 442.326 346.416 442.503C431.688 443.581 468.219 442.616 468.219 442.616" stroke="#082C4E" stroke-width="1.17148" stroke-linecap="round" stroke-linejoin="round"/>
<path d="M236.645 83.7678C236.645 83.7678 259.245 116.202 289.806 132.159C319.692 147.759 358.132 148.09 359.811 148.096" stroke="#092C4E" stroke-width="28.7013" stroke-linejoin="round"/>
<path d="M236.645 83.7678C236.645 83.7678 259.245 116.202 289.806 132.159C319.692 147.759 358.132 148.09 359.811 148.096" stroke="#FFCC00" stroke-width="26.3583"/>
<path d="M245.868 72.2919L221.437 91.4596L225.104 94.1295L249.365 78.2018L245.868 72.2919Z" fill="#FFCC00"/>
<path d="M233.386 84.5708C229.713 83.7737 225.822 76.2906 224.736 73.0002C223.899 70.4668 224.484 68.5312 226.726 67.5259C229.954 66.0782 234.243 69.858 234.894 70.6623" stroke="#082C4E" stroke-width="1.17148" stroke-linecap="round" stroke-linejoin="round"/>
<path d="M232.894 74.7966C233.671 75.6709 235.551 78.8598 236.035 79.9247" stroke="#082C4E" stroke-width="1.17148" stroke-linecap="round" stroke-linejoin="round"/>
<path d="M223.791 71.5495C219.797 70.7176 219.113 74.2767 219.37 76.1867C220.025 81.0618 224.361 87.2793 226.956 89.5568C227.748 90.2515 228.963 90.4459 229.951 90.0813C230.939 89.7168 231.648 88.5657 231.305 87.5696" stroke="#082C4E" stroke-width="1.17148" stroke-linecap="round" stroke-linejoin="round"/>
<path d="M219.009 75.3787C215.802 75.2953 215.013 78.7248 215.538 81.4079C216.443 86.022 220.127 89.7669 222.297 91.3076C223.349 92.0542 226.245 92.7665 227.185 90.1602" stroke="#082C4E" stroke-width="1.17148" stroke-linecap="round" stroke-linejoin="round"/>
<path d="M250.642 75.9138C250.642 75.9138 247.791 73.6284 240.97 63.8557C237.399 58.7386 235.435 55.7384 233.563 53.9323C231.235 51.6883 229.136 50.9137 227.971 52.1912C226.658 53.6306 228.092 58.3033 229.751 61.6381C232.681 67.5237 240.031 78.6522 242.052 81.2185" stroke="#082C4E" stroke-width="1.17148" stroke-linecap="round" stroke-linejoin="round"/>
<path d="M250.608 85.0426C247.528 82.577 237.168 79.8909 234.755 79.9669C231.73 80.0624 231.852 83.3009 234.09 85.1931C236.891 87.561 241.785 88.9198 242.195 88.9391C243.302 88.9916 237.089 90.6109 236.459 94.7422" stroke="#082C4E" stroke-width="1.17148" stroke-linecap="round" stroke-linejoin="round"/>
<path d="M452.521 272.674C452.521 272.674 477.851 236.124 462.631 199.419C447.742 163.49 405.541 155.198 403.741 154.854" stroke="#092C4E" stroke-width="28.7013" stroke-linejoin="round"/>
<path d="M452.521 272.674C452.521 272.674 477.851 236.124 462.631 199.419C447.742 163.49 405.541 155.198 403.741 154.854" stroke="#FFCC00" stroke-width="26.3583"/>
<path d="M401.597 218.592L344.408 209.65C341.224 209.152 339.047 206.165 339.544 202.978L348.816 143.558C350.282 134.165 359.076 127.74 368.459 129.207L403.198 134.639C412.582 136.106 419 144.911 417.535 154.304L408.262 213.723C407.764 216.91 404.781 219.09 401.597 218.592Z" fill="#2F97F3"/>
<path d="M426.906 377.607L337.311 337.528L390.048 219.483L479.643 259.561L426.906 377.607Z" fill="white"/>
<path d="M363.188 321.185C378.082 301.931 393.008 282.703 407.967 263.5C408.972 262.21 410.084 260.846 411.658 260.403C413.275 259.947 414.976 260.577 416.537 261.196C421.95 263.344 427.364 265.492 432.777 267.64" stroke="#082C4E" stroke-width="1.17148" stroke-linecap="round" stroke-linejoin="round"/>
<path d="M364.501 323.899C367.636 324.812 377.671 329.202 377.671 329.202C377.671 329.202 396.95 305.391 397.542 305.278C397.863 305.218 410.496 310.363 410.346 310.864C407.305 320.964 405.237 331.377 403.095 338.339C402.969 338.748 419.33 346.033 419.61 345.912C420.115 345.695 420.538 344.024 420.656 343.488C422.724 334.161 431.825 289.855 432.122 282.778" stroke="#082C4E" stroke-width="1.17148" stroke-linecap="round" stroke-linejoin="round"/>
<path d="M404.475 293.674C404.475 293.674 411.837 297.051 413.832 297.827C414.266 297.996 417.962 275.126 417.962 275.126L404.475 293.674Z" stroke="#082C4E" stroke-width="1.17148" stroke-linecap="round" stroke-linejoin="round"/>
<path d="M439.124 263.485C435.944 268.479 426.711 277.684 429.462 279.852C432.74 282.435 439.314 274.716 442.205 270.815" stroke="#082C4E" stroke-width="1.17148" stroke-linecap="round" stroke-linejoin="round"/>
<path d="M436.808 288.449C436.731 291.1 440.147 290.535 442.039 289.451C447.025 286.594 450.442 281.052 452.88 277.072" stroke="#082C4E" stroke-width="1.17148" stroke-linecap="round" stroke-linejoin="round"/>
<path d="M443.268 268.687C441.423 272.102 440.991 274.009 436.468 279.881C434.033 283.042 430.468 287.271 432.691 288.54C437.178 291.1 444.697 280.389 448.108 274.243" stroke="#082C4E" stroke-width="1.17148" stroke-linecap="round" stroke-linejoin="round"/>
<path d="M442.474 291.173C442.892 291.867 444.233 292.841 446.4 291.965C449.988 290.516 453.683 287.823 455.612 284.466" stroke="#082C4E" stroke-width="1.17148" stroke-linecap="round" stroke-linejoin="round"/>
<path d="M439.078 263.343C439.078 263.343 447.038 253.423 449.112 240.611" stroke="#092C4E" stroke-width="1.17148"/>
<path d="M477.183 256.847C477.183 256.847 474.447 267.704 469.698 275.275" stroke="#092C4E" stroke-width="1.17148"/>
<path d="M339.4 162.691C339.4 162.691 343.385 163.643 356.552 162.227" stroke="#092C4E" stroke-width="1.17148"/>
<path d="M346.952 131.54C346.952 131.54 351.25 132.087 363.114 131.594" stroke="#092C4E" stroke-width="1.17148"/>
<path d="M416.784 175.925C416.784 175.925 412.594 173.242 403.08 172.062" stroke="#092C4E" stroke-width="1.17148"/>
<path d="M421.663 143.599C421.663 143.599 413.171 139.958 404.979 139.667" stroke="#092C4E" stroke-width="1.17148"/>
<path d="M384.195 112.427C384.195 112.427 378.743 116.104 372.609 113.083" stroke="#082C4E" stroke-width="1.17148" stroke-linecap="round" stroke-linejoin="round"/>
<path d="M376.651 103.656L373.493 108.739L376.213 110.193" stroke="#082C4E" stroke-width="1.17148" stroke-linecap="round" stroke-linejoin="round"/>
<path d="M376.382 102.883C376.232 105.116 374.302 106.805 372.071 106.655C369.84 106.505 368.153 104.574 368.303 102.34C368.453 100.107 370.382 98.418 372.613 98.5678C374.844 98.7176 376.531 100.649 376.382 102.883Z" stroke="#082C4E" stroke-width="1.17148" stroke-linecap="round" stroke-linejoin="round"/>
<path d="M386.47 104.018C386.32 106.251 384.391 107.94 382.16 107.79C379.929 107.64 378.242 105.709 378.392 103.476C378.541 101.243 380.471 99.5544 382.702 99.7035C384.933 99.8533 386.62 101.784 386.47 104.018Z" stroke="#082C4E" stroke-width="1.17148" stroke-linecap="round" stroke-linejoin="round"/>
<path d="M376.672 103.36L378.392 103.476L376.672 103.36Z" fill="#2F97F3"/>
<path d="M376.672 103.36L378.392 103.476" stroke="#082C4E" stroke-width="1.17148" stroke-linecap="round" stroke-linejoin="round"/>
<path d="M390.92 89.2721C388.798 86.4774 385.534 84.5747 381.76 84.3216C374.834 83.8568 368.844 89.1001 368.379 96.0329L384.717 97.1293C386.246 100.254 389.292 101.348 391.873 101.857C394.532 102.381 395.732 103.748 396.035 105.402C396.112 105.821 396.165 106.267 396.217 106.729C396.806 106.513 397.447 106.41 398.114 106.455C400.66 106.626 402.586 108.83 402.414 111.378C402.311 112.933 401.448 114.254 400.214 115.011C401.702 116.072 403.498 116.736 405.454 116.868C405.47 116.868 405.485 116.868 405.5 116.87C406.696 114.599 407.448 112.049 407.631 109.324C408.309 99.1967 400.892 90.4016 390.92 89.2721Z" fill="#FD6470"/>
<path d="M404.724 117.94C401.194 123.084 395.276 126.458 388.57 126.458C377.755 126.458 368.987 117.681 368.987 106.854C368.987 106.34 369.007 105.831 369.046 105.325" stroke="#082C4E" stroke-width="1.17148" stroke-linecap="round" stroke-linejoin="round"/>
<path d="M142.11 97.1475L147.255 100.647L145.124 103.418" stroke="#082C4E" stroke-width="1.17148" stroke-linecap="round" stroke-linejoin="round"/>
<path d="M147.516 105.676C147.516 105.676 142.898 109.349 137.833 107.845C137.833 107.845 138.645 114.456 145.044 113.229" stroke="#082C4E" stroke-width="1.17148" stroke-linecap="round" stroke-linejoin="round"/>
<path d="M145.639 93.4146C148.294 96.7674 149.877 101.01 149.868 105.621C149.848 116.448 141.064 125.209 130.249 125.189C124.441 125.178 119.228 122.638 115.649 118.611" stroke="#082C4E" stroke-width="1.17148" stroke-linecap="round" stroke-linejoin="round"/>
<path d="M145.235 91.9888C141.045 87.1331 134.753 84.5657 128.389 85.0716C128.376 85.0722 126.784 85.2285 125.719 85.4823C124.181 85.8479 122.856 86.2854 121.87 86.7194C119.671 87.6884 117.73 88.9951 116.08 90.5467C115.734 90.1837 115.36 89.8389 114.944 89.5291C110.935 86.5442 105.268 87.3779 102.286 91.3911C99.304 95.4043 100.136 101.077 104.145 104.062C105.841 105.325 107.834 105.897 109.794 105.841C109.854 107.345 110.085 108.861 110.501 110.363C111.566 114.752 114.39 117.977 114.39 117.977C119.812 115.823 122.292 113.789 123.416 111.823C123.258 111.828 123.099 111.825 122.939 111.814C120.393 111.638 118.472 109.431 118.647 106.883C118.823 104.335 121.028 102.411 123.574 102.587C124.002 102.617 124.411 102.708 124.797 102.845C125.228 101.792 126.016 100.735 127.445 99.6662C131.765 96.4348 133.041 93.2882 132.889 90.7475C136.702 92.4137 141.013 92.9115 145.235 91.9888Z" fill="#2F97F3"/>
<path d="M0.880188 396.973C0.880188 406.864 7.07589 415.302 15.7925 418.623C10.6334 421.346 7.11498 426.765 7.11498 433.009V441.379H45.8718V433.009C45.8718 426.765 42.3534 421.346 37.1943 418.623C45.9109 415.302 52.1066 406.864 52.1066 396.973V373.353H0.880188V396.973Z" fill="#2F97F3"/>
<path d="M10.1131 338.985C15.8323 350.609 19.9958 362.998 22.4587 375.719" stroke="#082C4E" stroke-width="1.17148" stroke-linecap="round" stroke-linejoin="round"/>
<path d="M27.1229 374.581C29.538 358.332 40.7161 337.19 44.3107 333.873" stroke="#082C4E" stroke-width="1.17148" stroke-linecap="round" stroke-linejoin="round"/>
<path d="M18.0188 373.028C15.2269 369.557 12.5881 365.962 10.1131 362.259C8.4846 359.821 4.48692 352.821 7.68115 352C9.56103 351.517 12.2942 355.238 14.0676 357.42C9.00563 350.025 4.14181 341.893 3.94432 332.93C3.87085 329.595 4.89875 325.948 7.78158 324.275C11.3957 322.177 14.8785 325.776 16.5635 328.699C21.7037 337.619 20.5511 344.105 21.7131 354.333C21.9706 353.511 22.1243 351.021 23.3868 351.014C27.4701 350.991 25.8888 369.043 24.9323 372.894" stroke="#082C4E" stroke-width="1.17148" stroke-linecap="round" stroke-linejoin="round"/>
<path d="M27.2921 352.203C28.6746 345.455 32.2712 329.911 36.833 330.125C38.8059 330.218 38.8558 333.44 38.6846 334.322C40.369 328.672 44.8237 323.92 50.3514 321.88C51.6624 321.396 53.208 321.08 54.3956 321.816C55.468 322.482 55.9277 323.857 55.8374 325.116C55.7464 326.375 55.2004 327.55 54.6457 328.684C52.4348 333.192 48.4338 339.078 45.6595 343.263C49.2541 340.788 50.8138 340.234 52.7078 340.544C54.2298 340.794 55.2314 342.412 55.2786 343.955C55.3264 345.498 54.6443 346.963 53.9116 348.322C50.9762 353.763 46.9401 358.604 42.1181 362.469C43.5012 362.673 45.2517 361.451 46.1091 362.556C46.3268 362.836 46.3982 363.205 46.4009 363.56C46.4124 365.137 45.2348 366.447 44.0661 367.502C41.1172 370.165 37.7275 372.335 34.0769 373.899" stroke="#082C4E" stroke-width="1.17148" stroke-linecap="round" stroke-linejoin="round"/>
<path d="M429.549 57.4998H472.804V116.738H429.549V57.4998Z" fill="#FD6470"/>
<path d="M435.41 63.7356H466.915V110.112H435.41V63.7356Z" stroke="#082C4E" stroke-width="1.17148" stroke-linecap="round" stroke-linejoin="round"/>
<path d="M456.052 81.9924C456.052 86.4017 452.479 89.9764 448.075 89.9764C443.67 89.9764 440.099 86.4017 440.099 81.9924C440.099 77.583 443.67 74.0083 448.075 74.0083C452.479 74.0083 456.052 77.583 456.052 81.9924Z" stroke="#082C4E" stroke-width="1.17148" stroke-linecap="round" stroke-linejoin="round"/>
<path d="M451.557 99.6472C451.557 96.2932 454.273 93.5747 457.624 93.5747C460.974 93.5747 463.69 96.2932 463.69 99.6472" stroke="#082C4E" stroke-width="1.17148" stroke-linecap="round" stroke-linejoin="round"/>
<path d="M209.783 242.447C242.158 226.804 268.161 208.685 259.528 176.508C246.294 127.18 164.962 135.615 164.962 135.615" stroke="#082C4E" stroke-width="1.17148" stroke-linecap="round" stroke-linejoin="round"/>
<path d="M171.815 166.09C171.815 166.09 217.31 160.073 228.771 177.785C236.71 190.055 232.186 202.597 214.391 212.871C206.689 217.319 194.28 221.045 186.529 225.607" stroke="#082C4E" stroke-width="1.17148" stroke-linecap="round" stroke-linejoin="round"/>
<path d="M201.331 241.351C199.625 244.366 197.647 249.062 197.371 252.906C197.333 253.435 197.408 254.274 197.766 254.663C198.392 255.343 199.529 254.909 200.259 254.343" stroke="#082C4E" stroke-width="1.17148" stroke-linecap="round" stroke-linejoin="round"/>
<path d="M191.368 226.711C189.169 228.871 186.958 231.044 185.148 233.54C183.336 236.034 181.927 238.891 181.531 241.949C181.451 242.572 181.467 243.322 181.987 243.674C182.262 243.86 182.62 243.881 182.948 243.827C184.148 243.627 184.995 242.58 185.741 241.619C187.892 238.848 190.177 236.181 192.586 233.631C190.199 237.359 187.782 241.148 186.514 245.39C186.35 245.938 186.204 246.509 186.277 247.077C186.35 247.645 186.687 248.213 187.227 248.4C187.73 248.575 188.285 248.393 188.764 248.162C190.943 247.116 192.497 245.11 193.776 243.057C195.055 241.005 196.556 238.371 197.482 237.106C195.241 240.34 192.174 245.427 191.388 250.15C191.136 251.66 191.439 252.934 192.259 253.412C193.27 254.001 194.456 252.763 194.802 252.356C197.39 249.319 199.413 244.443 201.246 241.491" stroke="#082C4E" stroke-width="1.17148" stroke-linecap="round" stroke-linejoin="round"/>
<path d="M96.5408 42.4407C96.5408 42.4407 30.816 61.0024 38.1966 109.812C45.4357 157.664 111.208 156.915 113.769 156.868" stroke="#092C4E" stroke-width="28.7013" stroke-linejoin="round"/>
<path d="M96.5408 42.4407C96.5408 42.4407 30.816 61.0024 38.1966 109.812C45.4357 157.664 111.208 156.915 113.769 156.868" stroke="#FFCC00" stroke-width="26.3583"/>
<path d="M192.906 16.6791L191.39 11.8501C190.986 10.5641 189.881 9.62475 188.548 9.43318L144.789 3.1395C143.375 2.9365 141.931 3.15847 140.643 3.77861L114.992 17.7195C113.407 13.71 108.921 11.6541 104.836 13.125L98.0581 15.5671C93.8927 17.0671 91.731 21.6625 93.2295 25.8303L105.714 60.5602C107.212 64.7281 111.803 66.8907 115.968 65.3908L122.746 62.9487C126.11 61.737 128.165 58.5068 128.043 55.1126L155.792 52.2897C157.275 52.1171 158.662 51.4731 159.752 50.4522L191.959 20.2893C192.942 19.3684 193.31 17.9644 192.906 16.6791Z" fill="white"/>
<path d="M192.236 14.5595L158.211 25.2714" stroke="#082C4E" stroke-width="1.17148" stroke-linecap="round" stroke-linejoin="round"/>
<path d="M147.178 28.7445C146.22 25.6948 147.913 22.4442 150.961 21.4849C154.008 20.5257 157.255 22.2206 158.213 25.2703C159.172 28.32 157.478 31.5707 154.431 32.5306C151.383 33.4898 148.136 31.7942 147.178 28.7445Z" stroke="#082C4E" stroke-width="1.17148" stroke-linecap="round" stroke-linejoin="round"/>
<path d="M90.7536 29.6288L98.3656 56.753L102.269 56.6282L93.7776 27.6168L90.7536 29.6288Z" fill="#FFCC00"/>
<path d="M89.723 41.0929C93.7111 39.0347 99.715 37.2405 104.247 34.6206C108.62 32.0925 107.153 29.7603 103.133 30.3422C100.126 30.7779 92.7821 32.5518 87.3378 35.021" stroke="#082C4E" stroke-width="1.17148" stroke-linecap="round" stroke-linejoin="round"/>
<path d="M91.9408 47.1746C93.2601 46.3247 111.348 40.6917 109.37 37.5308C107.398 34.3791 92.311 40.544 89.8116 41.1743" stroke="#082C4E" stroke-width="1.17148" stroke-linecap="round" stroke-linejoin="round"/>
<path d="M94.4191 52.3417C106.758 47.1615 112.126 45.3716 110.975 43.1782C109.843 41.019 98.919 45.023 92.1086 47.1671" stroke="#082C4E" stroke-width="1.17148" stroke-linecap="round" stroke-linejoin="round"/>
<path d="M178.171 200.487C177.416 191.197 169.424 184.238 160.191 184.696C166.52 181.663 170.596 174.907 169.882 167.51L167.677 144.665C166.764 135.202 158.361 128.271 148.908 129.186L116.578 132.313C107.124 133.227 100.201 141.639 101.115 151.101L103.32 173.946C103.985 180.851 108.642 186.403 114.783 188.547C106.524 190.376 100.672 198.068 101.377 206.744C102.147 216.22 110.445 223.275 119.912 222.504L162.427 219.041C171.894 218.269 178.942 209.962 178.171 200.487Z" fill="#FD6470"/>
</svg>
