<svg width="627" height="599" viewBox="0 0 627 599" fill="none" xmlns="http://www.w3.org/2000/svg">
<path d="M512.348 500.758H491.699L494.409 508.038C489.97 509.483 479.874 512.796 475.341 514.099C471.12 515.313 469.964 520.215 473.328 522.495C474.734 523.449 476.62 523.92 478.446 523.913L509.258 523.803C513.542 523.787 516.369 522.654 516.942 519.026C517.073 518.195 517.002 517.341 516.774 516.531L512.348 500.758Z" fill="#072C4E"/>
<path d="M396.029 500.9H374.133L376.538 508.02C372.1 509.466 361.714 512.907 357.182 514.21C352.961 515.423 351.805 520.324 355.169 522.605C356.575 523.559 358.46 523.92 360.287 523.914H393.575C393.623 523.914 393.671 523.913 393.719 523.912C398.74 523.851 402.182 518.804 400.536 514.056L396.029 500.9Z" fill="#072C4E"/>
<path d="M466.072 298.256C466.072 298.256 480.789 340.202 494.045 383.272C499.984 402.567 520.472 475.682 526.735 493.641C527.86 496.863 525.469 500.598 522.06 500.598H481.496C477.202 500.598 472.634 497.24 471.341 493.141C442.806 402.7 426.305 316.474 426.305 316.474C426.305 316.374 393.162 373.019 386.388 384.595C385.617 385.915 385.381 387.474 385.729 388.963C388.727 401.772 403.487 464.434 412.374 494.473C413.247 497.425 411.114 500.509 408.038 500.533C408.016 500.533 407.994 500.534 407.973 500.533H369.604C366.564 500.533 363.368 498.144 362.494 495.229C352.114 460.65 344.727 426.805 338.456 395.643C335.719 382.043 338.358 374.924 349.24 358.982C361.648 340.805 391.707 292.297 395.077 288.924" stroke="#082C4E" stroke-width="1.17148" stroke-linecap="round" stroke-linejoin="round"/>
<path d="M172.842 501.105H152.194L151.819 506.963C147.381 508.408 135.699 512.196 131.166 513.499C126.946 514.712 125.79 519.614 129.154 521.895C130.56 522.848 132.58 523.209 134.406 523.203H163.846C168.677 523.185 171.655 521.745 171.637 516.909L172.842 501.105Z" fill="#072C4E"/>
<path d="M278.841 500.544H300.737L306.54 506.962C310.978 508.408 322.66 512.196 327.192 513.499C331.413 514.712 332.569 519.614 329.205 521.895C327.799 522.848 325.914 523.208 324.086 523.202H290.799C285.968 523.184 283.405 521.146 282.477 517.274L278.841 500.544Z" fill="#072C4E"/>
<path d="M261.729 329.913C283.97 371.493 317.057 450.685 326.284 492.851C327.057 496.386 324.399 500.492 320.785 500.546H270.246C267.385 500.589 264.279 497.043 263.855 494.209C256.779 446.987 208.817 332.218 201.853 308.827C201.853 308.827 194.03 455.037 193.509 490.633C193.434 495.788 189.995 501.166 184.844 501.166H142.756C137.041 501.166 132.642 496.12 133.42 490.453C143.271 418.616 150.106 339.249 159.39 295.67" stroke="#082C4E" stroke-width="1.17148" stroke-linecap="round" stroke-linejoin="round"/>
<path d="M233.42 292.634C237.014 299.044 242.266 306.076 245.552 310.177" stroke="#082C4E" stroke-width="1.17148" stroke-linecap="round" stroke-linejoin="round"/>
<path d="M121.193 522.182C239.621 524.713 339.018 523.627 339.018 523.627" stroke="#082C4E" stroke-width="1.17148" stroke-linecap="round" stroke-linejoin="round"/>
<path d="M358.902 522.829C375.625 523.186 389.395 523.326 403.416 523.503C488.688 524.581 525.219 523.616 525.219 523.616" stroke="#082C4E" stroke-width="1.17148" stroke-linecap="round" stroke-linejoin="round"/>
<path d="M293.645 164.768C293.645 164.768 316.245 197.202 346.806 213.159C376.692 228.759 415.132 229.09 416.811 229.096" stroke="#092C4E" stroke-width="28.7013" stroke-linejoin="round"/>
<path d="M293.645 164.768C293.645 164.768 316.245 197.202 346.806 213.159C376.692 228.759 415.132 229.09 416.811 229.096" stroke="#FFCC00" stroke-width="26.3583"/>
<path d="M302.868 153.292L278.437 172.46L282.104 175.129L306.365 159.202L302.868 153.292Z" fill="#FFCC00"/>
<path d="M290.386 165.571C286.713 164.774 282.822 157.291 281.736 154C280.899 151.467 281.484 149.531 283.726 148.526C286.954 147.078 291.243 150.858 291.894 151.662" stroke="#082C4E" stroke-width="1.17148" stroke-linecap="round" stroke-linejoin="round"/>
<path d="M289.894 155.797C290.671 156.671 292.551 159.86 293.035 160.925" stroke="#082C4E" stroke-width="1.17148" stroke-linecap="round" stroke-linejoin="round"/>
<path d="M280.791 152.549C276.797 151.718 276.113 155.277 276.37 157.187C277.025 162.062 281.361 168.279 283.956 170.557C284.748 171.252 285.963 171.446 286.951 171.081C287.939 170.717 288.648 169.566 288.305 168.57" stroke="#082C4E" stroke-width="1.17148" stroke-linecap="round" stroke-linejoin="round"/>
<path d="M276.009 156.379C272.802 156.295 272.013 159.725 272.538 162.408C273.443 167.022 277.127 170.767 279.297 172.308C280.349 173.054 283.245 173.767 284.185 171.16" stroke="#082C4E" stroke-width="1.17148" stroke-linecap="round" stroke-linejoin="round"/>
<path d="M307.642 156.914C307.642 156.914 304.791 154.628 297.97 144.856C294.399 139.739 292.435 136.738 290.563 134.932C288.235 132.688 286.136 131.914 284.971 133.191C283.658 134.631 285.092 139.303 286.751 142.638C289.681 148.524 297.031 159.652 299.052 162.219" stroke="#082C4E" stroke-width="1.17148" stroke-linecap="round" stroke-linejoin="round"/>
<path d="M307.608 166.043C304.528 163.577 294.168 160.891 291.755 160.967C288.73 161.062 288.852 164.301 291.09 166.193C293.891 168.561 298.785 169.92 299.195 169.939C300.302 169.992 294.089 171.611 293.459 175.742" stroke="#082C4E" stroke-width="1.17148" stroke-linecap="round" stroke-linejoin="round"/>
<path d="M509.521 353.674C509.521 353.674 534.851 317.124 519.631 280.419C504.742 244.49 462.541 236.198 460.741 235.854" stroke="#092C4E" stroke-width="28.7013" stroke-linejoin="round"/>
<path d="M509.521 353.674C509.521 353.674 534.851 317.124 519.631 280.419C504.742 244.49 462.541 236.198 460.741 235.854" stroke="#FFCC00" stroke-width="26.3583"/>
<path d="M458.597 299.592L401.408 290.65C398.224 290.152 396.047 287.165 396.544 283.978L405.816 224.558C407.282 215.165 416.076 208.74 425.459 210.207L460.198 215.639C469.582 217.106 476 225.911 474.535 235.304L465.262 294.723C464.764 297.91 461.781 300.09 458.597 299.592Z" fill="#2F97F3"/>
<path d="M483.906 458.607L394.311 418.528L447.048 300.483L536.643 340.561L483.906 458.607Z" fill="white"/>
<path d="M420.188 402.185C435.082 382.931 450.008 363.703 464.967 344.5C465.972 343.21 467.084 341.846 468.658 341.403C470.275 340.947 471.976 341.577 473.537 342.196C478.95 344.344 484.364 346.492 489.777 348.64" stroke="#082C4E" stroke-width="1.17148" stroke-linecap="round" stroke-linejoin="round"/>
<path d="M421.501 404.899C424.636 405.812 434.671 410.202 434.671 410.202C434.671 410.202 453.95 386.391 454.542 386.278C454.863 386.218 467.496 391.363 467.346 391.864C464.305 401.964 462.237 412.377 460.095 419.339C459.969 419.748 476.33 427.033 476.61 426.912C477.115 426.695 477.538 425.024 477.656 424.488C479.724 415.161 488.825 370.855 489.122 363.778" stroke="#082C4E" stroke-width="1.17148" stroke-linecap="round" stroke-linejoin="round"/>
<path d="M461.475 374.674C461.475 374.674 468.837 378.051 470.832 378.827C471.266 378.996 474.962 356.126 474.962 356.126L461.475 374.674Z" stroke="#082C4E" stroke-width="1.17148" stroke-linecap="round" stroke-linejoin="round"/>
<path d="M496.124 344.485C492.944 349.479 483.711 358.684 486.462 360.852C489.74 363.435 496.314 355.716 499.205 351.815" stroke="#082C4E" stroke-width="1.17148" stroke-linecap="round" stroke-linejoin="round"/>
<path d="M493.808 369.449C493.731 372.1 497.147 371.535 499.039 370.451C504.025 367.594 507.442 362.052 509.88 358.072" stroke="#082C4E" stroke-width="1.17148" stroke-linecap="round" stroke-linejoin="round"/>
<path d="M500.268 349.687C498.423 353.102 497.991 355.009 493.468 360.881C491.033 364.042 487.468 368.271 489.691 369.54C494.178 372.1 501.697 361.389 505.108 355.243" stroke="#082C4E" stroke-width="1.17148" stroke-linecap="round" stroke-linejoin="round"/>
<path d="M499.474 372.173C499.892 372.867 501.233 373.841 503.4 372.965C506.988 371.516 510.683 368.823 512.612 365.466" stroke="#082C4E" stroke-width="1.17148" stroke-linecap="round" stroke-linejoin="round"/>
<path d="M496.078 344.343C496.078 344.343 504.038 334.423 506.112 321.611" stroke="#092C4E" stroke-width="1.17148"/>
<path d="M534.183 337.847C534.183 337.847 531.447 348.704 526.698 356.275" stroke="#092C4E" stroke-width="1.17148"/>
<path d="M396.4 243.691C396.4 243.691 400.385 244.643 413.552 243.227" stroke="#092C4E" stroke-width="1.17148"/>
<path d="M403.952 212.54C403.952 212.54 408.25 213.087 420.114 212.594" stroke="#092C4E" stroke-width="1.17148"/>
<path d="M473.784 256.925C473.784 256.925 469.594 254.242 460.08 253.062" stroke="#092C4E" stroke-width="1.17148"/>
<path d="M478.663 224.599C478.663 224.599 470.171 220.958 461.979 220.667" stroke="#092C4E" stroke-width="1.17148"/>
<path d="M441.195 193.427C441.195 193.427 435.743 197.104 429.609 194.083" stroke="#082C4E" stroke-width="1.17148" stroke-linecap="round" stroke-linejoin="round"/>
<path d="M433.651 184.656L430.493 189.739L433.213 191.193" stroke="#082C4E" stroke-width="1.17148" stroke-linecap="round" stroke-linejoin="round"/>
<path d="M433.382 183.883C433.232 186.116 431.302 187.805 429.071 187.655C426.84 187.505 425.153 185.574 425.303 183.34C425.453 181.107 427.382 179.418 429.613 179.568C431.844 179.718 433.531 181.649 433.382 183.883Z" stroke="#082C4E" stroke-width="1.17148" stroke-linecap="round" stroke-linejoin="round"/>
<path d="M443.47 185.018C443.32 187.251 441.391 188.94 439.16 188.79C436.929 188.64 435.242 186.709 435.392 184.476C435.541 182.243 437.471 180.554 439.702 180.703C441.933 180.853 443.62 182.784 443.47 185.018Z" stroke="#082C4E" stroke-width="1.17148" stroke-linecap="round" stroke-linejoin="round"/>
<path d="M433.672 184.36L435.392 184.476Z" fill="#2F97F3"/>
<path d="M433.672 184.36L435.392 184.476" stroke="#082C4E" stroke-width="1.17148" stroke-linecap="round" stroke-linejoin="round"/>
<path d="M447.92 170.272C445.798 167.477 442.534 165.575 438.76 165.322C431.834 164.857 425.844 170.1 425.379 177.033L441.717 178.129C443.246 181.254 446.292 182.348 448.873 182.857C451.532 183.381 452.732 184.748 453.035 186.402C453.112 186.821 453.165 187.267 453.217 187.729C453.806 187.513 454.447 187.41 455.114 187.455C457.66 187.626 459.586 189.83 459.414 192.378C459.311 193.933 458.448 195.254 457.214 196.011C458.702 197.072 460.498 197.736 462.454 197.868C462.47 197.868 462.485 197.868 462.5 197.87C463.696 195.599 464.448 193.049 464.631 190.324C465.309 180.197 457.892 171.402 447.92 170.272Z" fill="#FD6470"/>
<path d="M461.724 198.94C458.194 204.084 452.276 207.458 445.57 207.458C434.755 207.458 425.987 198.681 425.987 187.854C425.987 187.34 426.007 186.831 426.046 186.325" stroke="#082C4E" stroke-width="1.17148" stroke-linecap="round" stroke-linejoin="round"/>
<path d="M199.11 178.147L204.255 181.647L202.124 184.418" stroke="#082C4E" stroke-width="1.17148" stroke-linecap="round" stroke-linejoin="round"/>
<path d="M204.516 186.676C204.516 186.676 199.898 190.349 194.833 188.845C194.833 188.845 195.645 195.456 202.044 194.229" stroke="#082C4E" stroke-width="1.17148" stroke-linecap="round" stroke-linejoin="round"/>
<path d="M202.639 174.415C205.294 177.767 206.877 182.01 206.868 186.621C206.848 197.448 198.064 206.209 187.249 206.189C181.441 206.178 176.228 203.638 172.649 199.611" stroke="#082C4E" stroke-width="1.17148" stroke-linecap="round" stroke-linejoin="round"/>
<path d="M202.235 172.989C198.045 168.133 191.753 165.566 185.389 166.072C185.376 166.072 183.784 166.229 182.719 166.482C181.181 166.848 179.856 167.285 178.87 167.719C176.671 168.688 174.73 169.995 173.08 171.547C172.734 171.184 172.36 170.839 171.944 170.529C167.935 167.544 162.268 168.378 159.286 172.391C156.304 176.404 157.136 182.077 161.145 185.062C162.841 186.325 164.834 186.897 166.794 186.841C166.854 188.345 167.085 189.861 167.501 191.363C168.566 195.752 171.39 198.977 171.39 198.977C176.812 196.823 179.292 194.789 180.416 192.823C180.258 192.828 180.099 192.825 179.939 192.814C177.393 192.638 175.472 190.431 175.647 187.883C175.823 185.335 178.028 183.411 180.574 183.587C181.002 183.617 181.411 183.708 181.797 183.845C182.228 182.792 183.016 181.735 184.445 180.666C188.765 177.435 190.041 174.288 189.889 171.748C193.702 173.414 198.013 173.911 202.235 172.989Z" fill="#2F97F3"/>
<path d="M57.8802 477.973C57.8802 487.864 64.0759 496.302 72.7925 499.623C67.6334 502.346 64.115 507.765 64.115 514.009V522.379H102.872V514.009C102.872 507.765 99.3534 502.346 94.1943 499.623C102.911 496.302 109.107 487.864 109.107 477.973V454.353H57.8802V477.973Z" fill="#2F97F3"/>
<path d="M67.1131 419.985C72.8323 431.609 76.9958 443.998 79.4587 456.719" stroke="#082C4E" stroke-width="1.17148" stroke-linecap="round" stroke-linejoin="round"/>
<path d="M84.1229 455.581C86.538 439.332 97.7161 418.19 101.311 414.873" stroke="#082C4E" stroke-width="1.17148" stroke-linecap="round" stroke-linejoin="round"/>
<path d="M75.0188 454.028C72.2269 450.557 69.5881 446.962 67.1131 443.259C65.4846 440.821 61.4869 433.821 64.6812 433C66.561 432.517 69.2942 436.238 71.0676 438.42C66.0056 431.025 61.1418 422.893 60.9443 413.93C60.8709 410.595 61.8988 406.948 64.7816 405.275C68.3957 403.177 71.8785 406.776 73.5635 409.699C78.7037 418.619 77.5511 425.105 78.7131 435.333C78.9706 434.511 79.1243 432.021 80.3868 432.014C84.4701 431.991 82.8888 450.043 81.9323 453.894" stroke="#082C4E" stroke-width="1.17148" stroke-linecap="round" stroke-linejoin="round"/>
<path d="M84.2921 433.203C85.6746 426.455 89.2712 410.911 93.833 411.125C95.8059 411.218 95.8558 414.44 95.6846 415.322C97.369 409.672 101.824 404.92 107.351 402.88C108.662 402.396 110.208 402.08 111.396 402.816C112.468 403.482 112.928 404.857 112.837 406.116C112.746 407.375 112.2 408.55 111.646 409.684C109.435 414.192 105.434 420.078 102.659 424.263C106.254 421.788 107.814 421.234 109.708 421.544C111.23 421.794 112.231 423.412 112.279 424.955C112.326 426.498 111.644 427.963 110.912 429.322C107.976 434.763 103.94 439.604 99.1181 443.469C100.501 443.673 102.252 442.451 103.109 443.556C103.327 443.836 103.398 444.205 103.401 444.56C103.412 446.137 102.235 447.447 101.066 448.502C98.1172 451.165 94.7275 453.335 91.0769 454.899" stroke="#082C4E" stroke-width="1.17148" stroke-linecap="round" stroke-linejoin="round"/>
<path d="M486.549 138.5H529.804V197.738H486.549V138.5Z" fill="#FD6470"/>
<path d="M492.41 144.736H523.915V191.112H492.41V144.736Z" stroke="#082C4E" stroke-width="1.17148" stroke-linecap="round" stroke-linejoin="round"/>
<path d="M513.052 162.992C513.052 167.402 509.479 170.976 505.075 170.976C500.67 170.976 497.099 167.402 497.099 162.992C497.099 158.583 500.67 155.008 505.075 155.008C509.479 155.008 513.052 158.583 513.052 162.992Z" stroke="#082C4E" stroke-width="1.17148" stroke-linecap="round" stroke-linejoin="round"/>
<path d="M508.557 180.647C508.557 177.293 511.273 174.575 514.624 174.575C517.974 174.575 520.69 177.293 520.69 180.647" stroke="#082C4E" stroke-width="1.17148" stroke-linecap="round" stroke-linejoin="round"/>
<path d="M266.783 323.447C299.158 307.804 325.161 289.685 316.528 257.508C303.294 208.18 221.962 216.615 221.962 216.615" stroke="#082C4E" stroke-width="1.17148" stroke-linecap="round" stroke-linejoin="round"/>
<path d="M228.815 247.09C228.815 247.09 274.31 241.073 285.771 258.785C293.71 271.055 289.186 283.597 271.391 293.871C263.689 298.319 251.28 302.045 243.529 306.607" stroke="#082C4E" stroke-width="1.17148" stroke-linecap="round" stroke-linejoin="round"/>
<path d="M258.331 322.351C256.625 325.366 254.647 330.062 254.371 333.906C254.333 334.435 254.408 335.274 254.766 335.663C255.392 336.343 256.529 335.909 257.259 335.343" stroke="#082C4E" stroke-width="1.17148" stroke-linecap="round" stroke-linejoin="round"/>
<path d="M248.368 307.711C246.169 309.871 243.958 312.044 242.148 314.54C240.336 317.034 238.927 319.891 238.531 322.949C238.451 323.572 238.467 324.322 238.987 324.674C239.262 324.86 239.62 324.881 239.948 324.827C241.148 324.627 241.995 323.58 242.741 322.619C244.892 319.848 247.177 317.181 249.586 314.631C247.199 318.359 244.782 322.148 243.514 326.39C243.35 326.938 243.204 327.509 243.277 328.077C243.35 328.645 243.687 329.213 244.227 329.4C244.73 329.575 245.285 329.393 245.764 329.162C247.943 328.116 249.497 326.11 250.776 324.057C252.055 322.005 253.556 319.371 254.482 318.106C252.241 321.34 249.174 326.427 248.388 331.15C248.136 332.66 248.439 333.934 249.259 334.412C250.27 335.001 251.456 333.763 251.802 333.356C254.39 330.319 256.413 325.443 258.246 322.491" stroke="#082C4E" stroke-width="1.17148" stroke-linecap="round" stroke-linejoin="round"/>
<path d="M153.541 123.441C153.541 123.441 87.816 142.002 95.1966 190.812C102.436 238.664 168.208 237.915 170.769 237.868" stroke="#092C4E" stroke-width="28.7013" stroke-linejoin="round"/>
<path d="M153.541 123.441C153.541 123.441 87.816 142.002 95.1966 190.812C102.436 238.664 168.208 237.915 170.769 237.868" stroke="#FFCC00" stroke-width="26.3583"/>
<path d="M249.906 97.6791L248.39 92.8501C247.986 91.5641 246.881 90.6247 245.548 90.4332L201.789 84.1395C200.375 83.9365 198.931 84.1585 197.643 84.7786L171.992 98.7195C170.407 94.71 165.921 92.6541 161.836 94.125L155.058 96.5671C150.893 98.0671 148.731 102.662 150.229 106.83L162.714 141.56C164.212 145.728 168.803 147.891 172.968 146.391L179.746 143.949C183.11 142.737 185.165 139.507 185.043 136.113L212.792 133.29C214.275 133.117 215.662 132.473 216.752 131.452L248.959 101.289C249.942 100.368 250.31 98.9644 249.906 97.6791Z" fill="white"/>
<path d="M249.236 95.5595L215.211 106.271" stroke="#082C4E" stroke-width="1.17148" stroke-linecap="round" stroke-linejoin="round"/>
<path d="M204.178 109.745C203.22 106.695 204.913 103.444 207.961 102.485C211.008 101.526 214.255 103.221 215.213 106.27C216.172 109.32 214.478 112.571 211.431 113.531C208.383 114.49 205.136 112.794 204.178 109.745Z" stroke="#082C4E" stroke-width="1.17148" stroke-linecap="round" stroke-linejoin="round"/>
<path d="M147.754 110.629L155.366 137.753L159.269 137.628L150.778 108.617L147.754 110.629Z" fill="#FFCC00"/>
<path d="M146.723 122.093C150.711 120.035 156.715 118.24 161.247 115.621C165.62 113.093 164.153 110.76 160.133 111.342C157.126 111.778 149.782 113.552 144.338 116.021" stroke="#082C4E" stroke-width="1.17148" stroke-linecap="round" stroke-linejoin="round"/>
<path d="M148.941 128.175C150.26 127.325 168.348 121.692 166.37 118.531C164.398 115.379 149.311 121.544 146.812 122.174" stroke="#082C4E" stroke-width="1.17148" stroke-linecap="round" stroke-linejoin="round"/>
<path d="M151.419 133.342C163.758 128.161 169.126 126.372 167.975 124.178C166.843 122.019 155.919 126.023 149.109 128.167" stroke="#082C4E" stroke-width="1.17148" stroke-linecap="round" stroke-linejoin="round"/>
<path d="M235.171 281.487C234.416 272.197 226.424 265.238 217.191 265.696C223.52 262.663 227.596 255.907 226.882 248.51L224.677 225.665C223.764 216.202 215.361 209.271 205.908 210.186L173.578 213.313C164.124 214.227 157.201 222.639 158.115 232.101L160.32 254.946C160.985 261.851 165.642 267.403 171.783 269.547C163.524 271.376 157.672 279.068 158.377 287.744C159.147 297.22 167.445 304.275 176.912 303.504L219.427 300.041C228.894 299.269 235.942 290.962 235.171 281.487Z" fill="#FD6470"/>
</svg>
