<svg width="415" height="179" viewBox="0 0 415 179" fill="none" xmlns="http://www.w3.org/2000/svg">
<path d="M90.6096 0C140.617 0 181.219 40.0996 181.219 89.4881C181.219 138.877 140.617 178.976 90.6096 178.976C40.6022 178.976 0 138.877 0 89.4881C0 40.0996 40.6022 0 90.6096 0Z" fill="#FE6571"/>
<path d="M173.61 0C223.617 0 264.219 40.0996 264.219 89.4881C264.219 138.877 223.617 178.976 173.61 178.976C123.602 178.976 83 138.877 83 89.4881C83 40.0996 123.602 0 173.61 0Z" fill="#082C4E"/>
<path d="M263.61 0C313.617 0 354.219 40.0996 354.219 89.4881C354.219 138.877 313.617 178.976 263.61 178.976C213.602 178.976 173 138.877 173 89.4881C173 40.0996 213.602 0 263.61 0Z" fill="#FFCC00"/>
<path d="M324.5 0C374.447 0 415 40.1049 415 89.5C415 138.895 374.447 179 324.5 179C274.553 179 234 138.895 234 89.5C234 40.1049 274.553 0 324.5 0Z" fill="#F2EAE2"/>
</svg>
